# xmcd
#
# Track frame offsets:
#	150
#	13787
#	28684
#	40710
#	60333
#	72985
#	83709
#	99836
#	111221
#	123753
#	140493
#	159887
#	173347
#	187702
#	204100
#
# Disc length: 2927 seconds
#
# Revision: 0
# Processed by: cddbd v1.5.2PL0 Copyright (c) Steve Scherf et al.
# Submitted via: EasyCDDAExtractor 15.3.0.1
#
DISCID=a70b6d0f
DTITLE=The Howie Bros - Requests
DYEAR=1900
DGENRE=Country
TTITLE0=Beautiful Sunday
TTITLE1=Waltz Across Texas
TTITLE2=Fly Like a Bird
TTITLE3=Nobody's Child
TTITLE4=Tennessee Waltz
TTITLE5=Second Fiddle
TTITLE6=Green, Green Grass of Home
TTITLE7=Silver Haired Daddy of Mine
TTITLE8=Paper Roses
TTITLE9=The First Time
TTITLE10=Cottage in the Country
TTITLE11=All I Have to Offer You is Me
TTITLE12=Annie's Song
TTITLE13=If Only She'd Answered Him Yesterday
TTITLE14=Love Me
EXTD=
EXTT0=
EXTT1=
EXTT2=
EXTT3=
EXTT4=
EXTT5=
EXTT6=
EXTT7=
EXTT8=
EXTT9=
EXTT10=
EXTT11=
EXTT12=
EXTT13=
EXTT14=
PLAYORDER=
